<svg width="865" height="150" viewBox="0 0 865 150" fill="none" xmlns="http://www.w3.org/2000/svg">
<path fill-rule="evenodd" clip-rule="evenodd" d="M29.7961 25H69.8973C76.4733 25 81.8042 30.4269 81.8042 37.1212V71.0613C81.8042 72.7464 82.2663 74.3686 83.0969 75.5996L89.0148 84.3698L62.4227 123.942C61.4757 125.351 59.8651 125.353 58.9159 123.947L26.2927 75.5996C25.4621 74.3686 25 72.7464 25 71.0613V31.6453C25 27.9752 27.1473 25 29.7961 25ZM96.1958 37.1212C96.1958 30.4269 101.527 25 108.103 25H148.204C150.853 25 153 27.9752 153 31.6453V71.0692C153 72.7496 152.541 74.3676 151.714 75.5975L119.227 123.942C118.28 125.351 116.669 125.353 115.72 123.947L89.0148 84.3698L94.9098 75.5975C95.7363 74.3676 96.1958 72.7496 96.1958 71.0692V37.1212Z" fill="#CFCFCF"/>
<path d="M203 25H215.295L235.104 109.631H236.197L258.943 25H273.833L296.511 109.631H297.604L317.413 25H329.366V27.0492L305.937 123.361H288.997L266.73 40.6421H265.637L243.369 123.361H226.429L203 27.0492V25Z" fill="#CFCFCF"/>
<path d="M327.717 88.5246C327.717 64.8907 340.832 52.1175 361.46 52.1175C382.157 52.1175 393.564 65.0273 393.564 85.5191V91.5301H339.329C339.602 106.011 347.936 115.301 361.46 115.301C374.302 115.301 380.245 107.992 381.337 101.571H392.13V103.62C390.559 112.158 382.499 125 361.597 125C340.969 125 327.717 112.227 327.717 88.5246ZM339.534 82.0355H382.089C381.952 70.1503 374.917 61.7486 361.392 61.7486C348.141 61.7486 340.49 70.2869 339.534 82.0355Z" fill="#CFCFCF"/>
<path d="M403.797 25H415.819V62.9781H416.912C422.103 55.2596 430.505 52.1858 440.136 52.1858C458.237 52.1858 472.103 64.4809 472.103 88.5929C472.103 112.637 458.237 124.932 440.136 124.932C430.3 124.932 421.83 121.79 416.639 113.798H415.546V123.361H403.797V25ZM415.409 88.5929C415.409 105.464 424.426 114.959 437.677 114.959C450.997 114.959 460.013 105.464 460.013 88.5929C460.013 71.653 450.997 62.1585 437.677 62.1585C424.426 62.1585 415.409 71.653 415.409 88.5929Z" fill="#CFCFCF"/>
<path d="M482.248 53.7568H493.86V62.0902H494.953C497.343 57.1721 501.715 53.4836 512.166 53.4836H521.865V63.8661H512.439C499.393 63.8661 494.27 71.0382 494.27 85.1776V123.361H482.248V53.7568Z" fill="#CFCFCF"/>
<path d="M522.912 88.5246C522.912 64.8907 536.027 52.1175 556.655 52.1175C577.352 52.1175 588.759 65.0273 588.759 85.5191V91.5301H534.524C534.797 106.011 543.131 115.301 556.655 115.301C569.497 115.301 575.44 107.992 576.532 101.571H587.325V103.62C585.754 112.158 577.694 125 556.792 125C536.164 125 522.912 112.227 522.912 88.5246ZM534.729 82.0355H577.284C577.147 70.1503 570.112 61.7486 556.587 61.7486C543.336 61.7486 535.685 70.2869 534.729 82.0355Z" fill="#CFCFCF"/>
<path d="M598.992 53.7568H610.673V62.7049H611.766C616.752 55.1229 625.154 52.1858 635.058 52.1858C651.246 52.1858 661.356 60.3825 661.356 77.3907V123.361H649.334V78.5519C649.334 67.2131 643.186 62.2268 632.326 62.2268C620.44 62.2268 611.014 69.2623 611.014 84.4945V123.361H598.992V53.7568Z" fill="#CFCFCF"/>
<path d="M670.875 88.5246C670.875 64.8907 683.99 52.1175 704.618 52.1175C725.315 52.1175 736.722 65.0273 736.722 85.5191V91.5301H682.487C682.76 106.011 691.093 115.301 704.618 115.301C717.46 115.301 723.402 107.992 724.495 101.571H735.287V103.62C733.716 112.158 725.656 125 704.755 125C684.126 125 670.875 112.227 670.875 88.5246ZM682.692 82.0355H725.246C725.11 70.1503 718.074 61.7486 704.55 61.7486C691.298 61.7486 683.648 70.2869 682.692 82.0355Z" fill="#CFCFCF"/>
<path d="M739.181 53.7568H750.656L764.796 109.631H765.957L782.897 53.7568H796.216L813.224 109.631H814.317L828.388 53.7568H839.522V55.806L821.285 123.361H806.872L789.932 67.6913H788.839L771.899 123.361H757.419L739.181 55.806V53.7568Z" fill="#CFCFCF"/>
</svg>
